<mxfile host="app.diagrams.net" agent="Mozilla/5.0 (Macintosh; Intel Mac OS X 10_15_7) AppleWebKit/537.36 (KHTML, like Gecko) Chrome/133.0.0.0 Safari/537.36" version="26.1.0">
  <diagram name="Page-1" id="vFzVG2v4a-QTF86SDmSL">
    <mxGraphModel dx="2288" dy="871" grid="1" gridSize="10" guides="1" tooltips="1" connect="1" arrows="1" fold="1" page="1" pageScale="1" pageWidth="850" pageHeight="1100" math="0" shadow="0">
      <root>
        <mxCell id="0" />
        <mxCell id="1" parent="0" />
        <mxCell id="4RFPzDFZCLjAgnLNIc_q-1" value="" style="rounded=0;whiteSpace=wrap;html=1;" vertex="1" parent="1">
          <mxGeometry x="-230" y="57.5" width="985" height="610" as="geometry" />
        </mxCell>
        <mxCell id="4RFPzDFZCLjAgnLNIc_q-2" value="&lt;div&gt;Azure Cloud&quot;&lt;/div&gt;" style="text;html=1;align=center;verticalAlign=middle;resizable=0;points=[];autosize=1;strokeColor=none;fillColor=none;" vertex="1" parent="1">
          <mxGeometry x="180" y="150" width="90" height="30" as="geometry" />
        </mxCell>
        <mxCell id="4RFPzDFZCLjAgnLNIc_q-3" value="" style="rounded=0;whiteSpace=wrap;html=1;" vertex="1" parent="1">
          <mxGeometry x="10" y="120" width="710" height="470" as="geometry" />
        </mxCell>
        <mxCell id="4RFPzDFZCLjAgnLNIc_q-4" value="&lt;div&gt;Resource Group:&lt;br/&gt;maveric (East US)&lt;/div&gt;" style="text;html=1;align=center;verticalAlign=middle;resizable=0;points=[];autosize=1;strokeColor=none;fillColor=none;" vertex="1" parent="1">
          <mxGeometry x="20" y="150" width="120" height="40" as="geometry" />
        </mxCell>
        <mxCell id="4RFPzDFZCLjAgnLNIc_q-6" value="" style="rounded=0;whiteSpace=wrap;html=1;" vertex="1" parent="1">
          <mxGeometry x="30" y="205" width="250" height="315" as="geometry" />
        </mxCell>
        <mxCell id="4RFPzDFZCLjAgnLNIc_q-46" style="edgeStyle=none;rounded=0;orthogonalLoop=1;jettySize=auto;html=1;" edge="1" parent="1" target="4RFPzDFZCLjAgnLNIc_q-17">
          <mxGeometry relative="1" as="geometry">
            <mxPoint x="280" y="240" as="sourcePoint" />
          </mxGeometry>
        </mxCell>
        <mxCell id="4RFPzDFZCLjAgnLNIc_q-48" value="" style="edgeStyle=none;rounded=0;orthogonalLoop=1;jettySize=auto;html=1;" edge="1" parent="1" source="4RFPzDFZCLjAgnLNIc_q-7" target="4RFPzDFZCLjAgnLNIc_q-8">
          <mxGeometry relative="1" as="geometry" />
        </mxCell>
        <mxCell id="4RFPzDFZCLjAgnLNIc_q-7" value="&lt;div&gt;Virtual Network: maveric-vnet&lt;/div&gt;&lt;div&gt;10.0.0.0/16&lt;/div&gt;" style="text;html=1;align=center;verticalAlign=middle;resizable=0;points=[];autosize=1;strokeColor=none;fillColor=none;" vertex="1" parent="1">
          <mxGeometry x="45" y="210" width="180" height="40" as="geometry" />
        </mxCell>
        <mxCell id="4RFPzDFZCLjAgnLNIc_q-8" value="&lt;div&gt;Subnet: maveric-subnet&lt;/div&gt;&lt;div&gt;10.0.1.0/24&lt;/div&gt;" style="rounded=0;whiteSpace=wrap;html=1;" vertex="1" parent="1">
          <mxGeometry x="50" y="290" width="170" height="110" as="geometry" />
        </mxCell>
        <mxCell id="4RFPzDFZCLjAgnLNIc_q-44" value="" style="edgeStyle=none;rounded=0;orthogonalLoop=1;jettySize=auto;html=1;" edge="1" parent="1" source="4RFPzDFZCLjAgnLNIc_q-9" target="4RFPzDFZCLjAgnLNIc_q-8">
          <mxGeometry relative="1" as="geometry" />
        </mxCell>
        <mxCell id="4RFPzDFZCLjAgnLNIc_q-9" value="" style="sketch=0;outlineConnect=0;fontColor=#232F3E;gradientColor=none;fillColor=#232F3D;strokeColor=none;dashed=0;verticalLabelPosition=bottom;verticalAlign=top;align=center;html=1;fontSize=12;fontStyle=0;aspect=fixed;pointerEvents=1;shape=mxgraph.aws4.shield2;" vertex="1" parent="1">
          <mxGeometry x="110" y="430" width="50" height="50" as="geometry" />
        </mxCell>
        <mxCell id="4RFPzDFZCLjAgnLNIc_q-10" value="&lt;div&gt;maveric-nsg&lt;/div&gt;&lt;div&gt;&lt;br&gt;&lt;/div&gt;" style="text;html=1;align=center;verticalAlign=middle;resizable=0;points=[];autosize=1;strokeColor=none;fillColor=none;" vertex="1" parent="1">
          <mxGeometry x="100" y="480" width="90" height="40" as="geometry" />
        </mxCell>
        <mxCell id="4RFPzDFZCLjAgnLNIc_q-64" style="edgeStyle=none;rounded=0;orthogonalLoop=1;jettySize=auto;html=1;entryX=0.881;entryY=-0.028;entryDx=0;entryDy=0;entryPerimeter=0;exitX=0.7;exitY=0.818;exitDx=0;exitDy=0;exitPerimeter=0;" edge="1" parent="1" source="4RFPzDFZCLjAgnLNIc_q-11" target="4RFPzDFZCLjAgnLNIc_q-61">
          <mxGeometry relative="1" as="geometry">
            <mxPoint x="470" y="359.9976470588234" as="sourcePoint" />
            <mxPoint x="421.1700000000001" y="505.67999999999995" as="targetPoint" />
            <Array as="points">
              <mxPoint x="690" y="420" />
            </Array>
          </mxGeometry>
        </mxCell>
        <mxCell id="4RFPzDFZCLjAgnLNIc_q-11" value="" style="verticalLabelPosition=bottom;html=1;verticalAlign=top;align=center;strokeColor=none;fillColor=#00BEF2;shape=mxgraph.azure.virtual_machine;" vertex="1" parent="1">
          <mxGeometry x="510" y="300" width="100" height="110" as="geometry" />
        </mxCell>
        <mxCell id="4RFPzDFZCLjAgnLNIc_q-12" value="&lt;div&gt;VM: maveric-vm&lt;/div&gt;&lt;div&gt;Public IP: maveric-public-ip (Static)&lt;/div&gt;&lt;div&gt;NIC: maveric-nic&lt;/div&gt;" style="text;html=1;align=center;verticalAlign=middle;resizable=0;points=[];autosize=1;strokeColor=none;fillColor=none;" vertex="1" parent="1">
          <mxGeometry x="440" y="410" width="210" height="60" as="geometry" />
        </mxCell>
        <mxCell id="4RFPzDFZCLjAgnLNIc_q-14" value="" style="points=[];aspect=fixed;html=1;align=center;shadow=0;dashed=0;fillColor=#FF6A00;strokeColor=none;shape=mxgraph.alibaba_cloud.acr_cloud_container_registry;" vertex="1" parent="1">
          <mxGeometry x="535.7" y="170" width="48.6" height="56.4" as="geometry" />
        </mxCell>
        <mxCell id="4RFPzDFZCLjAgnLNIc_q-17" value="&lt;div&gt;&lt;br&gt;&lt;/div&gt;&lt;div&gt;mavericacr&lt;/div&gt;&lt;div&gt;&lt;br&gt;&lt;/div&gt;" style="text;html=1;align=center;verticalAlign=middle;resizable=0;points=[];autosize=1;strokeColor=none;fillColor=none;" vertex="1" parent="1">
          <mxGeometry x="520" y="210" width="80" height="60" as="geometry" />
        </mxCell>
        <mxCell id="4RFPzDFZCLjAgnLNIc_q-19" value="" style="image;aspect=fixed;perimeter=ellipsePerimeter;html=1;align=center;shadow=0;dashed=0;spacingTop=3;image=img/lib/active_directory/internet_cloud.svg;" vertex="1" parent="1">
          <mxGeometry x="230" y="667.5" width="135" height="85.05" as="geometry" />
        </mxCell>
        <mxCell id="4RFPzDFZCLjAgnLNIc_q-21" value="&lt;div&gt;Internet&lt;/div&gt;" style="text;html=1;align=center;verticalAlign=middle;resizable=0;points=[];autosize=1;strokeColor=none;fillColor=none;" vertex="1" parent="1">
          <mxGeometry x="280" y="695.05" width="60" height="30" as="geometry" />
        </mxCell>
        <mxCell id="4RFPzDFZCLjAgnLNIc_q-26" value="Azure Cloud" style="text;html=1;align=center;verticalAlign=middle;resizable=0;points=[];autosize=1;strokeColor=none;fillColor=none;" vertex="1" parent="1">
          <mxGeometry x="-180" y="175" width="90" height="30" as="geometry" />
        </mxCell>
        <mxCell id="4RFPzDFZCLjAgnLNIc_q-33" value="" style="ellipse;whiteSpace=wrap;html=1;aspect=fixed;" vertex="1" parent="1">
          <mxGeometry x="440" y="675.05" width="70" height="70" as="geometry" />
        </mxCell>
        <mxCell id="4RFPzDFZCLjAgnLNIc_q-34" value="" style="ellipse;whiteSpace=wrap;html=1;aspect=fixed;" vertex="1" parent="1">
          <mxGeometry x="610" y="670.02" width="80" height="80" as="geometry" />
        </mxCell>
        <mxCell id="4RFPzDFZCLjAgnLNIc_q-35" value="&lt;div&gt;Public IP&lt;/div&gt;" style="text;html=1;align=center;verticalAlign=middle;resizable=0;points=[];autosize=1;strokeColor=none;fillColor=none;" vertex="1" parent="1">
          <mxGeometry x="440" y="697.52" width="70" height="30" as="geometry" />
        </mxCell>
        <mxCell id="4RFPzDFZCLjAgnLNIc_q-36" value="&lt;div&gt;VM Services&lt;/div&gt;" style="text;html=1;align=center;verticalAlign=middle;resizable=0;points=[];autosize=1;strokeColor=none;fillColor=none;" vertex="1" parent="1">
          <mxGeometry x="610" y="697.52" width="90" height="30" as="geometry" />
        </mxCell>
        <mxCell id="4RFPzDFZCLjAgnLNIc_q-37" style="edgeStyle=none;rounded=0;orthogonalLoop=1;jettySize=auto;html=1;entryX=-0.026;entryY=0.401;entryDx=0;entryDy=0;entryPerimeter=0;" edge="1" parent="1" source="4RFPzDFZCLjAgnLNIc_q-19" target="4RFPzDFZCLjAgnLNIc_q-35">
          <mxGeometry relative="1" as="geometry" />
        </mxCell>
        <mxCell id="4RFPzDFZCLjAgnLNIc_q-39" style="edgeStyle=none;rounded=0;orthogonalLoop=1;jettySize=auto;html=1;entryX=0.108;entryY=0.998;entryDx=0;entryDy=0;entryPerimeter=0;" edge="1" parent="1" source="4RFPzDFZCLjAgnLNIc_q-36" target="4RFPzDFZCLjAgnLNIc_q-36">
          <mxGeometry relative="1" as="geometry" />
        </mxCell>
        <mxCell id="4RFPzDFZCLjAgnLNIc_q-40" style="edgeStyle=none;rounded=0;orthogonalLoop=1;jettySize=auto;html=1;entryX=-0.046;entryY=0.485;entryDx=0;entryDy=0;entryPerimeter=0;" edge="1" parent="1" source="4RFPzDFZCLjAgnLNIc_q-33" target="4RFPzDFZCLjAgnLNIc_q-36">
          <mxGeometry relative="1" as="geometry" />
        </mxCell>
        <mxCell id="4RFPzDFZCLjAgnLNIc_q-41" style="edgeStyle=none;rounded=0;orthogonalLoop=1;jettySize=auto;html=1;" edge="1" parent="1" source="4RFPzDFZCLjAgnLNIc_q-8">
          <mxGeometry relative="1" as="geometry">
            <mxPoint x="500" y="345" as="targetPoint" />
          </mxGeometry>
        </mxCell>
        <mxCell id="4RFPzDFZCLjAgnLNIc_q-50" value="" style="verticalLabelPosition=bottom;html=1;verticalAlign=top;align=center;strokeColor=none;fillColor=#00BEF2;shape=mxgraph.azure.azure_subscription;" vertex="1" parent="1">
          <mxGeometry x="-160" y="70" width="50" height="35" as="geometry" />
        </mxCell>
        <mxCell id="4RFPzDFZCLjAgnLNIc_q-59" style="edgeStyle=none;rounded=0;orthogonalLoop=1;jettySize=auto;html=1;exitX=0.9;exitY=0.98;exitDx=0;exitDy=0;exitPerimeter=0;entryX=0.697;entryY=-0.149;entryDx=0;entryDy=0;entryPerimeter=0;" edge="1" parent="1" source="4RFPzDFZCLjAgnLNIc_q-50" target="4RFPzDFZCLjAgnLNIc_q-26">
          <mxGeometry relative="1" as="geometry" />
        </mxCell>
        <mxCell id="4RFPzDFZCLjAgnLNIc_q-60" style="edgeStyle=none;rounded=0;orthogonalLoop=1;jettySize=auto;html=1;entryX=-0.003;entryY=0.147;entryDx=0;entryDy=0;entryPerimeter=0;" edge="1" parent="1" source="4RFPzDFZCLjAgnLNIc_q-26" target="4RFPzDFZCLjAgnLNIc_q-3">
          <mxGeometry relative="1" as="geometry" />
        </mxCell>
        <mxCell id="4RFPzDFZCLjAgnLNIc_q-61" value="" style="swimlane;startSize=0;" vertex="1" parent="1">
          <mxGeometry x="425" y="490" width="200" height="90" as="geometry" />
        </mxCell>
        <mxCell id="4RFPzDFZCLjAgnLNIc_q-62" value="&lt;div&gt;Docker Containers&lt;/div&gt;&lt;div&gt;- auth (4000)&lt;/div&gt;&lt;div&gt;- caretaker (4004)&lt;/div&gt;&lt;div&gt;- medication (4002)&lt;/div&gt;&lt;div&gt;- middleware (3001)&lt;/div&gt;&lt;div&gt;- frontend (3000)&lt;/div&gt;" style="text;html=1;align=center;verticalAlign=middle;resizable=0;points=[];autosize=1;strokeColor=none;fillColor=none;" vertex="1" parent="1">
          <mxGeometry x="460" y="485" width="130" height="100" as="geometry" />
        </mxCell>
      </root>
    </mxGraphModel>
  </diagram>
</mxfile>
